<mxfile host="app.diagrams.net" agent="Mozilla/5.0 (Windows NT 10.0; Win64; x64) AppleWebKit/537.36 (KHTML, like Gecko) Chrome/136.0.0.0 Safari/537.36 Edg/136.0.0.0" version="27.0.6">
  <diagram id="C5RBs43oDa-KdzZeNtuy" name="Page-1">
    <mxGraphModel dx="2191" dy="2871" grid="1" gridSize="10" guides="1" tooltips="1" connect="1" arrows="1" fold="1" page="1" pageScale="1" pageWidth="827" pageHeight="1169" math="0" shadow="0">
      <root>
        <mxCell id="WIyWlLk6GJQsqaUBKTNV-0" />
        <mxCell id="WIyWlLk6GJQsqaUBKTNV-1" parent="WIyWlLk6GJQsqaUBKTNV-0" />
        <mxCell id="1kD25msxRpRGetFRvdTi-3" value="" style="edgeStyle=orthogonalEdgeStyle;rounded=0;orthogonalLoop=1;jettySize=auto;html=1;" edge="1" parent="WIyWlLk6GJQsqaUBKTNV-1" source="1kD25msxRpRGetFRvdTi-0" target="1kD25msxRpRGetFRvdTi-2">
          <mxGeometry relative="1" as="geometry" />
        </mxCell>
        <mxCell id="1kD25msxRpRGetFRvdTi-0" value="登录" style="rounded=0;whiteSpace=wrap;html=1;" vertex="1" parent="WIyWlLk6GJQsqaUBKTNV-1">
          <mxGeometry x="50" y="405" width="120" height="60" as="geometry" />
        </mxCell>
        <mxCell id="1kD25msxRpRGetFRvdTi-5" value="" style="edgeStyle=orthogonalEdgeStyle;rounded=0;orthogonalLoop=1;jettySize=auto;html=1;" edge="1" parent="WIyWlLk6GJQsqaUBKTNV-1" source="1kD25msxRpRGetFRvdTi-2" target="1kD25msxRpRGetFRvdTi-4">
          <mxGeometry relative="1" as="geometry" />
        </mxCell>
        <mxCell id="1kD25msxRpRGetFRvdTi-7" value="" style="edgeStyle=orthogonalEdgeStyle;rounded=0;orthogonalLoop=1;jettySize=auto;html=1;" edge="1" parent="WIyWlLk6GJQsqaUBKTNV-1" source="1kD25msxRpRGetFRvdTi-2" target="1kD25msxRpRGetFRvdTi-6">
          <mxGeometry relative="1" as="geometry" />
        </mxCell>
        <mxCell id="1kD25msxRpRGetFRvdTi-8" style="edgeStyle=orthogonalEdgeStyle;rounded=0;orthogonalLoop=1;jettySize=auto;html=1;entryX=0;entryY=0.5;entryDx=0;entryDy=0;" edge="1" parent="WIyWlLk6GJQsqaUBKTNV-1" source="1kD25msxRpRGetFRvdTi-2" target="1kD25msxRpRGetFRvdTi-9">
          <mxGeometry relative="1" as="geometry">
            <mxPoint x="530" y="435" as="targetPoint" />
          </mxGeometry>
        </mxCell>
        <mxCell id="1kD25msxRpRGetFRvdTi-2" value="用户名和密码" style="rhombus;whiteSpace=wrap;html=1;rounded=0;" vertex="1" parent="WIyWlLk6GJQsqaUBKTNV-1">
          <mxGeometry x="200" y="395" width="170" height="80" as="geometry" />
        </mxCell>
        <mxCell id="1kD25msxRpRGetFRvdTi-11" value="" style="edgeStyle=orthogonalEdgeStyle;rounded=0;orthogonalLoop=1;jettySize=auto;html=1;entryX=0.5;entryY=1;entryDx=0;entryDy=0;" edge="1" parent="WIyWlLk6GJQsqaUBKTNV-1" source="1kD25msxRpRGetFRvdTi-4" target="1kD25msxRpRGetFRvdTi-16">
          <mxGeometry relative="1" as="geometry">
            <mxPoint x="330" y="240" as="targetPoint" />
          </mxGeometry>
        </mxCell>
        <mxCell id="1kD25msxRpRGetFRvdTi-13" style="edgeStyle=orthogonalEdgeStyle;rounded=0;orthogonalLoop=1;jettySize=auto;html=1;entryX=0.5;entryY=1;entryDx=0;entryDy=0;" edge="1" parent="WIyWlLk6GJQsqaUBKTNV-1" source="1kD25msxRpRGetFRvdTi-4" target="1kD25msxRpRGetFRvdTi-15">
          <mxGeometry relative="1" as="geometry">
            <mxPoint x="550" y="240" as="targetPoint" />
          </mxGeometry>
        </mxCell>
        <mxCell id="1kD25msxRpRGetFRvdTi-4" value="学生" style="whiteSpace=wrap;html=1;rounded=0;" vertex="1" parent="WIyWlLk6GJQsqaUBKTNV-1">
          <mxGeometry x="380" y="305" width="120" height="60" as="geometry" />
        </mxCell>
        <mxCell id="1kD25msxRpRGetFRvdTi-36" style="edgeStyle=orthogonalEdgeStyle;rounded=0;orthogonalLoop=1;jettySize=auto;html=1;entryX=0.5;entryY=0;entryDx=0;entryDy=0;" edge="1" parent="WIyWlLk6GJQsqaUBKTNV-1" source="1kD25msxRpRGetFRvdTi-6" target="1kD25msxRpRGetFRvdTi-35">
          <mxGeometry relative="1" as="geometry" />
        </mxCell>
        <mxCell id="1kD25msxRpRGetFRvdTi-38" style="edgeStyle=orthogonalEdgeStyle;rounded=0;orthogonalLoop=1;jettySize=auto;html=1;entryX=0.5;entryY=0;entryDx=0;entryDy=0;" edge="1" parent="WIyWlLk6GJQsqaUBKTNV-1" source="1kD25msxRpRGetFRvdTi-6" target="1kD25msxRpRGetFRvdTi-37">
          <mxGeometry relative="1" as="geometry" />
        </mxCell>
        <mxCell id="1kD25msxRpRGetFRvdTi-40" style="edgeStyle=orthogonalEdgeStyle;rounded=0;orthogonalLoop=1;jettySize=auto;html=1;entryX=0.5;entryY=0;entryDx=0;entryDy=0;" edge="1" parent="WIyWlLk6GJQsqaUBKTNV-1" source="1kD25msxRpRGetFRvdTi-6" target="1kD25msxRpRGetFRvdTi-39">
          <mxGeometry relative="1" as="geometry" />
        </mxCell>
        <mxCell id="1kD25msxRpRGetFRvdTi-6" value="老师" style="whiteSpace=wrap;html=1;rounded=0;" vertex="1" parent="WIyWlLk6GJQsqaUBKTNV-1">
          <mxGeometry x="380" y="525" width="120" height="60" as="geometry" />
        </mxCell>
        <mxCell id="1kD25msxRpRGetFRvdTi-26" style="edgeStyle=orthogonalEdgeStyle;rounded=0;orthogonalLoop=1;jettySize=auto;html=1;entryX=0;entryY=0.5;entryDx=0;entryDy=0;" edge="1" parent="WIyWlLk6GJQsqaUBKTNV-1" source="1kD25msxRpRGetFRvdTi-9" target="1kD25msxRpRGetFRvdTi-25">
          <mxGeometry relative="1" as="geometry" />
        </mxCell>
        <mxCell id="1kD25msxRpRGetFRvdTi-34" style="edgeStyle=orthogonalEdgeStyle;rounded=0;orthogonalLoop=1;jettySize=auto;html=1;entryX=0;entryY=0.5;entryDx=0;entryDy=0;" edge="1" parent="WIyWlLk6GJQsqaUBKTNV-1" source="1kD25msxRpRGetFRvdTi-9" target="1kD25msxRpRGetFRvdTi-33">
          <mxGeometry relative="1" as="geometry" />
        </mxCell>
        <mxCell id="1kD25msxRpRGetFRvdTi-9" value="管理员" style="rounded=0;whiteSpace=wrap;html=1;" vertex="1" parent="WIyWlLk6GJQsqaUBKTNV-1">
          <mxGeometry x="530" y="405" width="120" height="60" as="geometry" />
        </mxCell>
        <mxCell id="1kD25msxRpRGetFRvdTi-20" value="" style="edgeStyle=orthogonalEdgeStyle;rounded=0;orthogonalLoop=1;jettySize=auto;html=1;" edge="1" parent="WIyWlLk6GJQsqaUBKTNV-1" source="1kD25msxRpRGetFRvdTi-15" target="1kD25msxRpRGetFRvdTi-19">
          <mxGeometry relative="1" as="geometry" />
        </mxCell>
        <mxCell id="1kD25msxRpRGetFRvdTi-21" style="edgeStyle=orthogonalEdgeStyle;rounded=0;orthogonalLoop=1;jettySize=auto;html=1;entryX=0.5;entryY=1;entryDx=0;entryDy=0;" edge="1" parent="WIyWlLk6GJQsqaUBKTNV-1" source="1kD25msxRpRGetFRvdTi-15" target="1kD25msxRpRGetFRvdTi-22">
          <mxGeometry relative="1" as="geometry">
            <mxPoint x="650" y="80" as="targetPoint" />
          </mxGeometry>
        </mxCell>
        <mxCell id="1kD25msxRpRGetFRvdTi-15" value="签到记录查看" style="rounded=1;whiteSpace=wrap;html=1;" vertex="1" parent="WIyWlLk6GJQsqaUBKTNV-1">
          <mxGeometry x="500" y="170" width="120" height="60" as="geometry" />
        </mxCell>
        <mxCell id="1kD25msxRpRGetFRvdTi-18" value="" style="edgeStyle=orthogonalEdgeStyle;rounded=0;orthogonalLoop=1;jettySize=auto;html=1;" edge="1" parent="WIyWlLk6GJQsqaUBKTNV-1" source="1kD25msxRpRGetFRvdTi-16" target="1kD25msxRpRGetFRvdTi-17">
          <mxGeometry relative="1" as="geometry" />
        </mxCell>
        <mxCell id="1kD25msxRpRGetFRvdTi-16" value="个人信息修改" style="rounded=1;whiteSpace=wrap;html=1;" vertex="1" parent="WIyWlLk6GJQsqaUBKTNV-1">
          <mxGeometry x="260" y="170" width="120" height="60" as="geometry" />
        </mxCell>
        <mxCell id="1kD25msxRpRGetFRvdTi-17" value="修改密码" style="whiteSpace=wrap;html=1;rounded=1;" vertex="1" parent="WIyWlLk6GJQsqaUBKTNV-1">
          <mxGeometry x="260" y="60" width="120" height="60" as="geometry" />
        </mxCell>
        <mxCell id="1kD25msxRpRGetFRvdTi-19" value="单条记录查看" style="whiteSpace=wrap;html=1;rounded=1;" vertex="1" parent="WIyWlLk6GJQsqaUBKTNV-1">
          <mxGeometry x="430" y="60" width="120" height="60" as="geometry" />
        </mxCell>
        <mxCell id="1kD25msxRpRGetFRvdTi-22" value="整体签到情况查看" style="rounded=1;whiteSpace=wrap;html=1;" vertex="1" parent="WIyWlLk6GJQsqaUBKTNV-1">
          <mxGeometry x="570" y="60" width="120" height="60" as="geometry" />
        </mxCell>
        <mxCell id="1kD25msxRpRGetFRvdTi-28" value="" style="edgeStyle=orthogonalEdgeStyle;rounded=0;orthogonalLoop=1;jettySize=auto;html=1;entryX=0;entryY=0.5;entryDx=0;entryDy=0;" edge="1" parent="WIyWlLk6GJQsqaUBKTNV-1" source="1kD25msxRpRGetFRvdTi-25" target="1kD25msxRpRGetFRvdTi-27">
          <mxGeometry relative="1" as="geometry" />
        </mxCell>
        <mxCell id="1kD25msxRpRGetFRvdTi-30" style="edgeStyle=orthogonalEdgeStyle;rounded=0;orthogonalLoop=1;jettySize=auto;html=1;entryX=0;entryY=0.5;entryDx=0;entryDy=0;" edge="1" parent="WIyWlLk6GJQsqaUBKTNV-1" source="1kD25msxRpRGetFRvdTi-25" target="1kD25msxRpRGetFRvdTi-29">
          <mxGeometry relative="1" as="geometry" />
        </mxCell>
        <mxCell id="1kD25msxRpRGetFRvdTi-32" style="edgeStyle=orthogonalEdgeStyle;rounded=0;orthogonalLoop=1;jettySize=auto;html=1;" edge="1" parent="WIyWlLk6GJQsqaUBKTNV-1" source="1kD25msxRpRGetFRvdTi-25" target="1kD25msxRpRGetFRvdTi-31">
          <mxGeometry relative="1" as="geometry" />
        </mxCell>
        <mxCell id="1kD25msxRpRGetFRvdTi-25" value="学生/老师信息管理" style="rounded=1;whiteSpace=wrap;html=1;" vertex="1" parent="WIyWlLk6GJQsqaUBKTNV-1">
          <mxGeometry x="690" y="320" width="120" height="60" as="geometry" />
        </mxCell>
        <mxCell id="1kD25msxRpRGetFRvdTi-27" value="学生/老师信息导入" style="rounded=1;whiteSpace=wrap;html=1;" vertex="1" parent="WIyWlLk6GJQsqaUBKTNV-1">
          <mxGeometry x="970" y="230" width="120" height="60" as="geometry" />
        </mxCell>
        <mxCell id="1kD25msxRpRGetFRvdTi-29" value="学生/老师信息修改" style="rounded=1;whiteSpace=wrap;html=1;" vertex="1" parent="WIyWlLk6GJQsqaUBKTNV-1">
          <mxGeometry x="970" y="405" width="120" height="60" as="geometry" />
        </mxCell>
        <mxCell id="1kD25msxRpRGetFRvdTi-31" value="学生/老师信息删除" style="rounded=1;whiteSpace=wrap;html=1;" vertex="1" parent="WIyWlLk6GJQsqaUBKTNV-1">
          <mxGeometry x="970" y="320" width="120" height="60" as="geometry" />
        </mxCell>
        <mxCell id="1kD25msxRpRGetFRvdTi-33" value="签到信息查看" style="rounded=1;whiteSpace=wrap;html=1;" vertex="1" parent="WIyWlLk6GJQsqaUBKTNV-1">
          <mxGeometry x="690" y="490" width="120" height="60" as="geometry" />
        </mxCell>
        <mxCell id="1kD25msxRpRGetFRvdTi-44" value="" style="edgeStyle=orthogonalEdgeStyle;rounded=0;orthogonalLoop=1;jettySize=auto;html=1;" edge="1" parent="WIyWlLk6GJQsqaUBKTNV-1" source="1kD25msxRpRGetFRvdTi-35" target="1kD25msxRpRGetFRvdTi-43">
          <mxGeometry relative="1" as="geometry" />
        </mxCell>
        <mxCell id="1kD25msxRpRGetFRvdTi-35" value="签到任务发布" style="rounded=1;whiteSpace=wrap;html=1;" vertex="1" parent="WIyWlLk6GJQsqaUBKTNV-1">
          <mxGeometry x="250" y="640" width="120" height="60" as="geometry" />
        </mxCell>
        <mxCell id="1kD25msxRpRGetFRvdTi-37" value="签到情况查看" style="rounded=1;whiteSpace=wrap;html=1;" vertex="1" parent="WIyWlLk6GJQsqaUBKTNV-1">
          <mxGeometry x="380" y="640" width="120" height="60" as="geometry" />
        </mxCell>
        <mxCell id="1kD25msxRpRGetFRvdTi-42" value="" style="edgeStyle=orthogonalEdgeStyle;rounded=0;orthogonalLoop=1;jettySize=auto;html=1;" edge="1" parent="WIyWlLk6GJQsqaUBKTNV-1" source="1kD25msxRpRGetFRvdTi-39" target="1kD25msxRpRGetFRvdTi-41">
          <mxGeometry relative="1" as="geometry" />
        </mxCell>
        <mxCell id="1kD25msxRpRGetFRvdTi-39" value="个人信息修改" style="rounded=1;whiteSpace=wrap;html=1;" vertex="1" parent="WIyWlLk6GJQsqaUBKTNV-1">
          <mxGeometry x="520" y="640" width="120" height="60" as="geometry" />
        </mxCell>
        <mxCell id="1kD25msxRpRGetFRvdTi-41" value="修改密码" style="whiteSpace=wrap;html=1;rounded=1;" vertex="1" parent="WIyWlLk6GJQsqaUBKTNV-1">
          <mxGeometry x="520" y="750" width="120" height="60" as="geometry" />
        </mxCell>
        <mxCell id="1kD25msxRpRGetFRvdTi-43" value="选择签到人员范围/签到时间等信息" style="whiteSpace=wrap;html=1;rounded=1;" vertex="1" parent="WIyWlLk6GJQsqaUBKTNV-1">
          <mxGeometry x="250" y="750" width="120" height="60" as="geometry" />
        </mxCell>
      </root>
    </mxGraphModel>
  </diagram>
</mxfile>
